<svg xmlns="http://www.w3.org/2000/svg" width="185.977" height="25.994" viewBox="0 0 185.977 25.994">
  <g id="title" transform="translate(-286.583 -436.494)">
    <path id="path110088" d="M462.04-63a1.554,1.554,0,0,0-1.522,1.522v22.944a1.554,1.554,0,0,0,1.522,1.522,1.562,1.562,0,0,0,1.559-1.522V-61.478A1.562,1.562,0,0,0,462.04-63Z" transform="translate(-173.935 499.499)" fill="#de1d77" stroke="#de1d77" stroke-miterlimit="2" stroke-width="0"/>
    <path id="path110090" d="M501.26-63.008a1.6,1.6,0,0,0-1.374,1.6v19.417l-9.467-13.551a1.483,1.483,0,0,0-1.225-.668,1.437,1.437,0,0,0-1.151,2.228l11.249,16.113a2.005,2.005,0,0,0,1.634.854,2.028,2.028,0,0,0,2.042-2V-61.485A1.554,1.554,0,0,0,501.26-63.008Zm-17.6,0a1.554,1.554,0,0,0-1.522,1.522v22.944a1.554,1.554,0,0,0,1.522,1.522,1.562,1.562,0,0,0,1.559-1.522V-61.485A1.562,1.562,0,0,0,483.661-63.008Z" transform="translate(-181.481 499.507)" fill="#cd2c84" stroke="#cd2c84" stroke-miterlimit="2" stroke-width="0"/>
    <path id="path110092" d="M556.1-63h-9.282a1.554,1.554,0,0,0-1.522,1.522,1.562,1.562,0,0,0,1.522,1.559H556.1a4.6,4.6,0,0,1,4.6,4.567,4.627,4.627,0,0,1-4.6,4.6h-9.282a1.529,1.529,0,0,0-1.522,1.522v10.692a1.554,1.554,0,0,0,1.522,1.522,1.562,1.562,0,0,0,1.559-1.522v-9.133H556.1a7.7,7.7,0,0,0,7.685-7.685A7.693,7.693,0,0,0,556.1-63Z" transform="translate(-213.428 499.499)" fill="#bc3c92" stroke="#bc3c92" stroke-miterlimit="2" stroke-width="0"/>
    <path id="path110094" d="M617.223-55.352A7.693,7.693,0,0,0,609.538-63h-9.282a1.554,1.554,0,0,0-1.522,1.522,1.562,1.562,0,0,0,1.522,1.559h9.282a4.6,4.6,0,0,1,4.6,4.567,4.627,4.627,0,0,1-4.6,4.6h-9.282a1.515,1.515,0,0,0-1.522,1.448v10.767a1.554,1.554,0,0,0,1.522,1.522,1.561,1.561,0,0,0,1.559-1.522v-9.133h7.722a7.7,7.7,0,0,0,7.685-7.685ZM613.1-44.734a1.408,1.408,0,0,0-1.262-.743,1.474,1.474,0,0,0-1.3,2.228l3.23,5.495a1.483,1.483,0,0,0,1.262.743,1.5,1.5,0,0,0,1.3-2.265Z" transform="translate(-239.665 499.499)" fill="#ab4b9f" stroke="#ab4b9f" stroke-miterlimit="2" stroke-width="0"/>
    <path id="path110096" d="M656.454-63a1.554,1.554,0,0,0-1.522,1.522v22.944a1.554,1.554,0,0,0,1.522,1.522,1.562,1.562,0,0,0,1.559-1.522V-61.478A1.562,1.562,0,0,0,656.454-63Z" transform="translate(-267.524 499.499)" fill="#9b5aad" stroke="#9b5aad" stroke-miterlimit="2" stroke-width="0"/>
    <path id="path110098" d="M695.674-63.008a1.6,1.6,0,0,0-1.374,1.6v19.417l-9.467-13.551a1.483,1.483,0,0,0-1.225-.668,1.437,1.437,0,0,0-1.151,2.228l11.249,16.113a2.005,2.005,0,0,0,1.634.854,2.028,2.028,0,0,0,2.042-2V-61.485A1.554,1.554,0,0,0,695.674-63.008Zm-17.6,0a1.554,1.554,0,0,0-1.522,1.522v22.944a1.554,1.554,0,0,0,1.522,1.522,1.562,1.562,0,0,0,1.559-1.522V-61.485A1.562,1.562,0,0,0,678.076-63.008Z" transform="translate(-275.07 499.507)" fill="#8a69ba" stroke="#8a69ba" stroke-miterlimit="2" stroke-width="0"/>
    <path id="path110100" d="M751.372-63h-15a1.554,1.554,0,0,0-1.522,1.522,1.562,1.562,0,0,0,1.522,1.559h15a1.537,1.537,0,0,0,1.522-1.559A1.529,1.529,0,0,0,751.372-63Zm-7.5,6.163a1.506,1.506,0,0,0-1.522,1.522v16.781a1.529,1.529,0,0,0,1.522,1.522,1.562,1.562,0,0,0,1.559-1.522V-55.315A1.537,1.537,0,0,0,743.873-56.837Z" transform="translate(-304.162 499.499)" fill="#7979c8" stroke="#7979c8" stroke-miterlimit="2" stroke-width="0"/>
    <path id="path110102" d="M785.865-59.918h13.217a1.569,1.569,0,0,0,1.559-1.559A1.562,1.562,0,0,0,799.082-63H785.865a1.554,1.554,0,0,0-1.522,1.522A1.562,1.562,0,0,0,785.865-59.918Zm13.217,19.826H787.424v-8.873h9.653a1.537,1.537,0,0,0,1.559-1.522,1.569,1.569,0,0,0-1.559-1.559H785.865a1.562,1.562,0,0,0-1.522,1.559v11.955a1.554,1.554,0,0,0,1.522,1.522h13.217a1.562,1.562,0,0,0,1.559-1.522A1.569,1.569,0,0,0,799.082-40.093Z" transform="translate(-328.081 499.499)" fill="#6888d5" stroke="#6888d5" stroke-miterlimit="2" stroke-width="0"/>
  </g>
</svg>
