<svg xmlns="http://www.w3.org/2000/svg" xmlns:xlink="http://www.w3.org/1999/xlink" width="52" height="52" viewBox="0 0 52 52">
  <defs>
    <linearGradient id="linear-gradient" x1="0.5" x2="0.5" y2="1" gradientUnits="objectBoundingBox">
      <stop offset="0" stop-color="#d54dc5"/>
      <stop offset="0.526" stop-color="#662d8b"/>
      <stop offset="1" stop-color="#3035a0"/>
    </linearGradient>
  </defs>
  <circle id="Ellipse_23" data-name="Ellipse 23" cx="26" cy="26" r="26" fill="url(#linear-gradient)"/>
  <path id="Icon_simple-instagram" data-name="Icon simple-instagram" d="M13.25,0C9.65,0,9.2.017,7.788.079A9.77,9.77,0,0,0,4.571.7,6.489,6.489,0,0,0,2.224,2.224,6.465,6.465,0,0,0,.7,4.571,9.742,9.742,0,0,0,.079,7.788C.013,9.2,0,9.65,0,13.25S.017,17.3.079,18.712A9.776,9.776,0,0,0,.7,21.929a6.5,6.5,0,0,0,1.528,2.347A6.479,6.479,0,0,0,4.571,25.8a9.782,9.782,0,0,0,3.216.616c1.413.066,1.863.079,5.462.079s4.049-.017,5.462-.08a9.8,9.8,0,0,0,3.216-.616A6.771,6.771,0,0,0,25.8,21.929a9.776,9.776,0,0,0,.616-3.216c.066-1.413.08-1.863.08-5.462s-.017-4.049-.08-5.462A9.8,9.8,0,0,0,25.8,4.571a6.5,6.5,0,0,0-1.528-2.347A6.456,6.456,0,0,0,21.929.7,9.748,9.748,0,0,0,18.712.079C17.3.013,16.849,0,13.25,0Zm0,2.385c3.537,0,3.958.018,5.355.078a7.3,7.3,0,0,1,2.459.458,4.36,4.36,0,0,1,2.515,2.514,7.316,7.316,0,0,1,.456,2.459c.063,1.4.077,1.817.077,5.355s-.017,3.958-.082,5.355a7.457,7.457,0,0,1-.465,2.459,4.207,4.207,0,0,1-.993,1.526,4.134,4.134,0,0,1-1.524.989,7.369,7.369,0,0,1-2.468.456c-1.407.063-1.821.077-5.365.077s-3.96-.017-5.365-.082a7.513,7.513,0,0,1-2.469-.465,4.1,4.1,0,0,1-1.523-.993,4.023,4.023,0,0,1-.994-1.524A7.52,7.52,0,0,1,2.4,18.582c-.05-1.391-.067-1.821-.067-5.349s.018-3.96.067-5.367A7.511,7.511,0,0,1,2.866,5.4,3.928,3.928,0,0,1,3.86,3.874a3.919,3.919,0,0,1,1.523-.992,7.333,7.333,0,0,1,2.452-.465c1.408-.05,1.822-.066,5.365-.066l.05.033Zm0,4.061a6.8,6.8,0,1,0,6.8,6.8A6.8,6.8,0,0,0,13.25,6.446Zm0,11.22a4.417,4.417,0,1,1,4.417-4.417A4.415,4.415,0,0,1,13.25,17.667ZM21.913,6.178a1.59,1.59,0,1,1-1.59-1.589A1.591,1.591,0,0,1,21.913,6.178Z" transform="translate(12.75 12.75)" fill="#def5ff"/>
</svg>