<svg xmlns="http://www.w3.org/2000/svg" xmlns:xlink="http://www.w3.org/1999/xlink" width="34.37" height="34.511" viewBox="0 0 44.37 34.511">
  <defs>
    <linearGradient id="linear-gradient" x1="0.849" y1="0.066" x2="0.07" y2="1" gradientUnits="objectBoundingBox">
      <stop offset="0" stop-color="#d54dc5"/>
      <stop offset="0.526" stop-color="#662d8b"/>
      <stop offset="1" stop-color="#3035a0"/>
    </linearGradient>
  </defs>
  <path id="Icon_awesome-shopping-basket" data-name="Icon awesome-shopping-basket" d="M44.37,16.424v1.233a1.849,1.849,0,0,1-1.849,1.849h-.616L39.894,33.586a3.7,3.7,0,0,1-3.66,3.175H8.137a3.7,3.7,0,0,1-3.66-3.175L2.465,19.505H1.849A1.849,1.849,0,0,1,0,17.656V16.424a1.849,1.849,0,0,1,1.849-1.849H7.036l8.225-11.31a2.465,2.465,0,1,1,3.987,2.9l-6.117,8.41H31.238l-6.117-8.41a2.465,2.465,0,0,1,3.987-2.9l8.225,11.31h5.187A1.849,1.849,0,0,1,44.37,16.424ZM24.034,29.982V21.354a1.849,1.849,0,0,0-3.7,0v8.628a1.849,1.849,0,1,0,3.7,0Zm8.628,0V21.354a1.849,1.849,0,0,0-3.7,0v8.628a1.849,1.849,0,1,0,3.7,0Zm-17.255,0V21.354a1.849,1.849,0,0,0-3.7,0v8.628a1.849,1.849,0,1,0,3.7,0Z" transform="translate(0 -2.25)" fill="url(#linear-gradient)"/>
</svg>
