<svg xmlns="http://www.w3.org/2000/svg" xmlns:xlink="http://www.w3.org/1999/xlink" width="52" height="52" viewBox="0 0 52 52">
  <defs>
    <linearGradient id="linear-gradient" x1="0.5" x2="0.5" y2="1" gradientUnits="objectBoundingBox">
      <stop offset="0" stop-color="#d54dc5"/>
      <stop offset="0.526" stop-color="#662d8b"/>
      <stop offset="1" stop-color="#3035a0"/>
    </linearGradient>
  </defs>
  <circle id="Ellipse_7" data-name="Ellipse 7" cx="26" cy="26" r="26" fill="url(#linear-gradient)"/>
  <path id="Icon_awesome-twitter" data-name="Icon awesome-twitter" d="M23.776,8.745c.017.235.017.471.017.706A15.347,15.347,0,0,1,8.34,24.9,15.348,15.348,0,0,1,0,22.465a11.235,11.235,0,0,0,1.312.067,10.877,10.877,0,0,0,6.743-2.32,5.441,5.441,0,0,1-5.078-3.766A6.849,6.849,0,0,0,4,16.53a5.744,5.744,0,0,0,1.429-.185,5.432,5.432,0,0,1-4.355-5.33v-.067a5.47,5.47,0,0,0,2.455.689A5.439,5.439,0,0,1,1.85,4.373a15.438,15.438,0,0,0,11.2,5.683,6.131,6.131,0,0,1-.135-1.244,5.436,5.436,0,0,1,9.4-3.716A10.693,10.693,0,0,0,25.76,3.784a5.416,5.416,0,0,1-2.388,2.993A10.888,10.888,0,0,0,26.5,5.937a11.675,11.675,0,0,1-2.724,2.808Z" transform="translate(12.75 11.858)" fill="#def5ff"/>
</svg>